Coordinates
version=1
nRows=14
nColumns=36
inDegrees=yes

Units are S.I. units (second, meters, Newtons, ...)
If the header above contains a line with 'inDegrees', this indicates whether rotational values are in degrees (yes) or radians (no).

endheader
time	pelvis_tilt	pelvis_list	pelvis_rotation	pelvis_tx	pelvis_ty	pelvis_tz	hip_flexion_r	hip_adduction_r	hip_rotation_r	knee_angle_r	knee_angle_r_beta	ankle_angle_r	subtalar_angle_r	mtp_angle_r	hip_flexion_l	hip_adduction_l	hip_rotation_l	knee_angle_l	knee_angle_l_beta	ankle_angle_l	subtalar_angle_l	mtp_angle_l	lumbar_extension	lumbar_bending	lumbar_rotation	arm_flex_r	arm_add_r	arm_rot_r	elbow_flex_r	pro_sup_r	arm_flex_l	arm_add_l	arm_rot_l	elbow_flex_l	pro_sup_l
      3.81666670	      7.21184687	     -3.89270306	     -2.87962163	      0.54051543	      0.76656691	     -0.07734922	     36.66482916	     -2.65171319	      1.04243573	      3.45011797	      0.06021592	     -8.53769675	    -12.25926859	     -7.49999987	     26.55524516	      3.63324363	     -4.99046141	     77.21918667	      1.34772905	     31.74975135	     -8.61259806	     -7.49999987	    -28.92481937	     -6.06796898	      1.68294112	     46.95024007	     13.11412992	     66.11353576	    123.51026933	     96.36960355	     39.93521878	      9.13989583	     70.82994225	    127.14305603	     88.60048288
      3.83333330	      7.23489018	     -3.97883614	     -2.90857396	      0.54025688	      0.76693393	     -0.07781332	     36.93974873	     -2.67195703	      0.66364615	      4.03522323	      0.07042793	     -8.21291670	    -11.99560099	     -7.49999987	     26.58036480	      3.74610643	     -4.83352348	     76.98511885	      1.34364380	     32.62148007	     -7.75679868	     -7.49999987	    -28.98012691	     -6.04738390	      1.83290891	     46.92984596	     12.94349309	     66.60361078	    123.52589340	     93.45745464	     39.79737112	      9.10127502	     70.75433320	    127.24514481	     85.91268935
      3.85000000	      7.43061606	     -4.03164315	     -2.76650702	      0.53596906	      0.76847511	     -0.07614341	     37.13977082	     -2.72759826	      0.71427636	      4.51638846	      0.07882585	     -8.67585933	    -13.43788942	     -7.49999987	     26.29342164	      3.54913012	     -4.83169189	     76.70059652	      1.33867795	     33.58811895	     -7.07993529	     -7.49999987	    -29.28690199	     -6.25565517	      2.01443520	     47.07500739	     12.88352566	     66.48253071	    123.28665232	     94.11828881	     40.22527233	      9.18321546	     70.56616925	    126.77120388	     86.64889858
      3.86666670	      7.30282366	     -4.06680483	     -2.57705568	      0.53561397	      0.76647951	     -0.07622846	     37.82663502	     -2.87034727	      0.26802961	      5.03265806	      0.08783645	     -8.19982590	    -13.19652101	     -7.49999987	     26.86336827	      3.49155314	     -4.55734512	     76.76285808	      1.33976462	     33.90463661	     -7.00086406	     -7.49999987	    -29.21083246	     -6.29365161	      1.99878874	     47.12601791	     12.91213596	     66.39562997	    123.37780591	     93.04062945	     40.41094098	      9.16363429	     70.32039483	    126.73054417	     85.65274331
      3.88333330	      7.37815702	     -3.95480094	     -2.39743176	      0.53558935	      0.77055563	     -0.07599645	     37.93537687	     -3.16332077	      0.09808993	      5.27760458	      0.09211158	     -8.36336526	    -13.25312822	     -7.49999987	     26.62146588	      3.57941230	     -4.34706932	     75.97739480	      1.32605570	     34.54828169	     -5.85457617	     -7.49999987	    -29.37087935	     -6.53525480	      1.93126586	     47.35754781	     12.85322777	     66.43798084	    123.47258659	     92.04394385	     40.74110346	      9.09146320	     70.27365255	    126.55829121	     84.77364266
      3.90000000	      7.24423342	     -4.06767281	     -2.31399922	      0.53879934	      0.77432821	     -0.07353565	     37.79105188	     -2.97900411	      0.14185377	      5.04556427	      0.08806171	     -8.05106295	    -13.11856714	     -7.49999987	     26.16015420	      3.30562955	     -3.88075497	     75.26957011	      1.31370182	     34.26987812	     -5.09413551	     -7.49999987	    -29.16067819	     -6.59151282	      2.04196777	     47.21735580	     12.71976377	     66.48712826	    123.54243833	     90.46448147	     40.53062266	      8.86684544	     70.33984322	    126.65464183	     83.37010014
      3.91666670	      7.25187346	     -4.08412762	     -2.30239920	      0.53914894	      0.77624922	     -0.07768877	     37.55091628	     -3.08388892	      0.71811553	      4.84074629	      0.08448696	     -8.12847851	    -13.71072902	     -7.49999987	     25.62616767	      3.50127016	     -3.59256871	     74.48019604	      1.29992465	     34.25773295	     -4.15201374	     -7.49999987	    -29.02283461	     -6.51519475	      1.94177180	     47.11579778	     12.76604815	     66.26997380	    123.26341661	     96.76918874	     40.31681171	      8.77263521	     69.86712781	    126.25208213	     88.88693402
      3.93333330	      7.16555011	     -4.21459685	     -2.22942862	      0.53509060	      0.77981570	     -0.07514853	     37.86744809	     -2.94644957	      0.86470004	      5.30158486	      0.09253011	     -8.09273124	    -14.24089838	     -7.49999987	     25.42680530	      3.43895018	     -3.46238339	     73.77227830	      1.28756915	     33.21276423	     -5.05270942	     -7.49999987	    -28.92139428	     -6.35262330	      1.93973691	     47.11250253	     12.70821967	     66.22232431	    123.41306104	     96.77152249	     40.16723853	      8.78356618	     69.63952028	    126.25957245	     88.90265635
      3.95000000	      7.01371906	     -4.32530023	     -1.94779392	      0.53304532	      0.78453617	     -0.07751769	     38.09870908	     -3.02887858	      0.80331744	      5.39694442	      0.09419445	     -7.97181579	    -14.37610856	     -7.49999987	     25.20669151	      3.73524233	     -3.02687354	     72.70729312	      1.26898166	     32.01071059	     -5.87492404	     -7.49999987	    -28.80648979	     -6.03712423	      1.69955522	     47.04863673	     12.72135299	     66.12823497	    123.55631135	     96.79163943	     39.94652425	      8.87190117	     69.58111470	    126.61527484	     88.93016713
      3.96666670	      7.03982737	     -4.40204415	     -1.93826507	      0.53686533	      0.78540982	     -0.07472342	     38.28861872	     -3.04282047	      0.83056493	      5.45441281	      0.09519746	     -8.12088598	    -14.36767465	     -7.49999987	     24.44206844	      3.73756509	     -2.65910459	     71.36159455	      1.24549478	     32.80132514	     -6.03569194	     -7.49999987	    -28.49037936	     -6.10713653	      1.62228797	     46.78768314	     12.60078373	     66.05554642	    123.71428944	     96.80145581	     39.80760955	      8.90026358	     69.33849774	    126.49668183	     88.92813571
      3.98333330	      7.11417450	     -4.50601273	     -2.11599810	      0.53304067	      0.79057393	     -0.07291520	     38.34227860	     -2.87249719	      0.65763903	      5.37907257	      0.09388253	     -8.58347399	    -14.43077358	     -7.49999987	     24.16135016	      3.56409279	     -2.59396841	     70.21833195	      1.22554109	     32.38834683	     -6.10312929	     -7.49999987	    -28.49953834	     -6.29156326	      1.67026514	     46.74187283	     12.53795257	     65.54186191	    124.14190891	     96.83941153	     39.90749982	      8.99044747	     68.85007011	    126.29410547	     88.91525640
      4.00000000	      7.34532588	     -4.42923226	     -2.23963484	      0.52661543	      0.79540150	     -0.07439419	     38.62526322	     -2.84661999	      0.43623620	      5.42113353	      0.09461663	     -8.37814221	    -13.90117259	     -7.49999987	     23.98885800	      3.65051057	     -2.64215774	     69.39535668	      1.21117746	     31.72021906	     -6.40354699	     -7.49999987	    -28.72705892	     -6.60778268	      1.56107809	     47.04237059	     12.47227252	     64.85304276	    124.43735236	     96.84184303	     40.36226775	      9.04666282	     68.35068741	    126.17825021	     88.85241318
      4.01666670	      7.68144800	     -4.39647620	     -2.10250180	      0.53171932	      0.80015555	     -0.07643787	     38.42760522	     -3.04798664	      0.51425790	      5.13207292	      0.08957157	     -8.26800036	    -13.28735222	     -7.49999987	     23.31997341	      3.76667530	     -2.77760315	     68.41789777	      1.19411758	     31.21258751	     -6.72844452	     -7.49999987	    -28.70070640	     -6.77656117	      1.20231520	     46.82792631	     12.33857228	     64.63229510	    124.59263724	     96.86904642	     40.59948722	      8.83048781	     68.07724813	    125.85979768	     88.79903011
      4.03333330	      7.86430513	     -4.53047383	     -2.33273644	      0.52770312	      0.80211400	     -0.07426049	     38.79179889	     -2.81431612	      0.20961677	      5.77145854	      0.10073095	     -8.43171930	    -12.86373063	     -7.49999987	     22.76682528	      3.67228562	     -2.91511144	     67.54668818	      1.17891211	     31.16344173	     -7.48156692	     -7.49999987	    -28.80092278	     -6.87962397	      1.02925590	     47.15206876	     12.37123124	     64.15025130	    124.88994801	     96.90797939	     40.92541417	      8.92904568	     67.58205653	    125.61959935	     88.70890042
